<?xml version="1.0" standalone="no"?>
<!DOCTYPE svg PUBLIC "-//W3C//DTD SVG 20010904//EN"
 "http://www.w3.org/TR/2001/REC-SVG-20010904/DTD/svg10.dtd">
<svg version="1.0" xmlns="http://www.w3.org/2000/svg"
 width="1024.000000pt" height="1024.000000pt" viewBox="0 0 1024.000000 1024.000000"
 preserveAspectRatio="xMidYMid meet">
<metadata>
Created by potrace 1.16, written by Peter Selinger 2001-2019
</metadata>
<g transform="translate(0.000000,1024.000000) scale(0.100000,-0.100000)"
fill="#000000" stroke="none">
<path d="M4805 8014 c-179 -23 -349 -62 -535 -124 -202 -66 -282 -99 -273
-113 3 -6 1 -7 -5 -3 -6 4 -19 3 -29 -2 -10 -6 -30 -15 -45 -22 -15 -7 -25
-17 -21 -23 3 -5 0 -7 -8 -5 -17 6 -80 -24 -99 -47 -7 -9 -15 -40 -16 -68 -2
-29 -6 -81 -9 -117 -11 -129 36 -555 59 -533 5 4 6 3 2 -4 -9 -16 17 -123 65
-269 37 -111 43 -121 65 -121 13 0 24 4 24 10 0 6 2 8 5 5 3 -3 3 -13 -1 -22
-4 -12 -10 -14 -19 -6 -15 12 -26 3 -18 -16 3 -8 10 -11 16 -7 6 4 8 0 4 -11
-7 -18 18 -72 101 -221 60 -107 90 -143 116 -141 16 2 21 -3 22 -20 l2 -24
-19 23 c-10 12 -18 17 -19 11 0 -16 35 -45 45 -37 4 5 5 0 2 -9 -3 -10 -2 -20
4 -24 6 -3 24 -25 40 -47 83 -114 341 -383 357 -373 6 4 14 1 18 -5 5 -8 3
-10 -7 -4 -8 4 3 -9 24 -29 21 -20 43 -34 49 -30 6 4 8 3 5 -3 -4 -6 41 -48
98 -93 81 -63 109 -80 119 -71 9 8 13 7 13 -4 0 -8 -5 -11 -11 -8 -34 19 20
-21 94 -70 155 -102 380 -226 398 -221 12 4 13 3 5 -3 -9 -6 21 -29 95 -73 59
-35 137 -86 173 -112 36 -26 69 -48 73 -48 4 0 14 -7 22 -15 8 -8 22 -11 31
-8 10 4 14 2 10 -4 -4 -6 11 -24 33 -42 40 -32 56 -39 44 -19 -4 7 -3 8 5 4 6
-4 9 -11 7 -15 -3 -4 16 -25 41 -47 140 -121 298 -292 426 -462 38 -51 72 -90
75 -87 3 2 -1 12 -8 20 -10 12 -11 18 -1 28 10 9 11 8 6 -4 -4 -10 -2 -20 4
-24 6 -3 9 -16 6 -28 -4 -16 15 -53 66 -132 123 -190 207 -393 273 -660 38
-155 46 -238 46 -486 l0 -229 67 52 c253 197 438 387 642 658 199 264 334 529
440 866 82 260 125 493 137 734 l7 135 -34 18 c-19 10 -59 33 -89 52 -30 19
-59 35 -66 35 -8 0 -15 -27 -19 -72 -33 -351 -205 -656 -472 -838 -121 -84
-260 -137 -432 -165 -138 -23 -321 -17 -406 15 -33 12 -76 25 -95 30 -19 4
-27 8 -17 9 9 0 17 6 17 11 0 6 -12 8 -27 4 -22 -4 -25 -3 -13 5 13 9 12 11
-5 11 -14 0 -16 3 -7 8 18 12 -20 54 -42 46 -9 -4 -16 -1 -16 6 0 7 -8 10 -20
7 -11 -3 -25 2 -32 12 -11 14 -11 14 4 3 10 -8 19 -9 22 -3 3 5 0 12 -6 14 -8
3 -6 6 5 6 19 1 23 16 7 26 -5 3 -10 1 -10 -4 0 -24 -19 -9 -25 20 -5 23 -11
29 -23 25 -15 -5 -15 -4 1 8 20 16 23 30 3 23 -9 -4 -12 0 -9 12 2 9 -12 37
-31 63 -20 26 -36 49 -36 52 0 3 -16 31 -35 63 -19 32 -40 81 -46 111 -7 29
-16 48 -19 41 -4 -6 -7 78 -5 187 2 179 5 210 29 304 15 58 31 113 37 123 6
11 8 22 4 25 -10 10 -25 -21 -25 -53 0 -17 -4 -25 -8 -18 -4 6 -5 33 -3 60 2
26 6 42 8 36 9 -24 22 -13 34 27 7 22 16 40 21 40 4 0 8 11 8 25 0 14 9 33 19
42 11 9 18 20 15 25 -3 5 0 7 8 6 7 -2 12 4 10 14 -2 12 2 16 13 12 20 -8 19
-15 -10 -46 -29 -32 -75 -111 -75 -130 0 -7 11 6 24 29 13 23 38 62 55 86 18
27 28 52 25 62 -4 9 3 24 17 37 23 19 23 20 3 14 -20 -6 -21 -5 -10 29 11 36
35 48 37 18 0 -11 3 -13 6 -5 2 6 11 12 19 12 8 0 14 5 14 10 0 6 -6 10 -12
10 -8 0 -9 3 -3 8 20 14 46 64 41 78 -3 8 -1 14 3 14 5 0 11 -5 13 -11 2 -7
12 -7 31 0 28 11 127 -3 127 -18 0 -3 18 -5 41 -3 22 2 39 6 37 7 -9 9 -179
32 -204 28 -24 -4 -26 -2 -14 7 13 10 12 11 -3 6 -10 -3 -25 -2 -35 4 -25 13
-253 82 -279 84 -11 0 -19 4 -17 8 2 4 -6 10 -18 14 -40 12 -261 116 -302 142
-29 18 -37 20 -33 8 3 -8 1 -18 -5 -22 -7 -5 -8 -2 -3 6 6 9 1 10 -16 5 -14
-3 -19 -3 -12 2 6 4 13 13 15 20 4 14 -83 74 -96 66 -5 -3 -6 -2 -3 4 4 6 -20
32 -53 58 -102 82 -223 229 -315 381 -25 41 -33 48 -31 30 0 -13 4 -22 9 -19
7 4 11 -11 8 -34 -1 -7 5 -13 14 -13 9 0 13 -5 10 -10 -4 -6 -11 -7 -17 -4 -6
4 -6 -1 1 -14 6 -11 19 -19 28 -18 18 3 68 -52 57 -63 -3 -3 -8 -1 -12 4 -12
17 -28 14 -28 -5 0 -14 3 -16 13 -8 9 8 13 7 13 -2 0 -10 3 -10 15 0 13 11 15
8 15 -14 0 -14 9 -35 20 -46 11 -11 20 -29 20 -40 0 -25 17 -27 22 -2 2 12 8
8 21 -18 48 -93 65 -113 88 -107 10 3 24 -2 31 -12 10 -13 10 -14 -1 -4 -9 7
-21 9 -36 3 -16 -6 -25 -5 -29 3 -23 45 -45 72 -62 75 -11 2 -27 14 -36 29
l-15 26 1 -30 c1 -19 5 -29 13 -26 18 7 36 -34 23 -56 -5 -11 -10 -31 -10 -45
0 -16 -6 -26 -15 -26 -8 0 -15 -9 -15 -20 0 -22 15 -27 23 -7 4 10 6 10 6 0 1
-7 8 -13 16 -13 20 0 19 -16 -1 -24 -9 -3 -58 -6 -110 -6 l-94 0 0 40 c0 22
-4 40 -10 40 -5 0 -10 -4 -10 -10 0 -5 -13 -10 -30 -10 -20 0 -30 -5 -30 -15
0 -8 -9 -15 -20 -15 -13 0 -20 -7 -20 -20 0 -11 -6 -20 -14 -20 -8 0 -18 -9
-21 -20 -4 -14 -15 -20 -36 -20 l-29 0 0 -120 c0 -73 -4 -120 -10 -120 -6 0
-10 33 -10 80 0 79 0 80 -25 80 -22 0 -25 4 -25 40 0 29 4 40 15 40 11 0 15
11 15 40 0 38 -2 40 -30 40 -28 0 -30 2 -30 40 l0 40 -40 0 -40 0 0 -120 0
-120 40 0 40 0 0 -40 0 -40 -55 0 -55 0 0 -40 0 -40 55 0 c30 0 55 -4 55 -10
0 -6 -33 -10 -78 -10 l-79 0 -12 -40 c-6 -22 -16 -40 -21 -40 -5 0 -12 -9 -15
-20 -7 -23 -35 -27 -35 -6 0 8 -6 16 -13 19 -7 2 -23 26 -37 53 -24 46 -25 47
-28 22 -4 -35 -12 -35 -42 -2 -21 21 -22 27 -10 35 13 8 12 12 -7 28 -13 11
-23 26 -23 35 0 11 -9 16 -30 16 l-30 0 0 320 c0 207 -4 320 -10 320 -6 0 -10
-33 -10 -80 l0 -80 -40 0 -40 0 0 -55 0 -55 -40 0 -40 0 0 55 c0 30 -4 55 -10
55 -6 0 -10 -33 -10 -80 0 -47 4 -80 10 -80 6 0 10 -4 10 -10 0 -5 -11 -10
-25 -10 -14 0 -25 5 -25 10 0 6 3 10 8 10 4 0 7 162 8 360 1 296 -1 360 -12
360 -11 0 -14 19 -14 80 0 64 3 80 15 80 11 0 15 11 15 40 0 29 -4 40 -15 40
-12 0 -15 16 -15 80 0 47 -4 80 -10 80 -5 0 -10 18 -10 40 0 22 -4 40 -10 40
-6 0 -10 -47 -10 -120 l0 -120 -30 0 c-28 0 -30 -2 -30 -40 0 -22 -4 -40 -10
-40 -5 0 -10 18 -10 40 0 22 5 40 10 40 6 0 10 18 10 40 0 29 -4 40 -15 40
-11 0 -15 11 -15 40 l0 40 -65 0 -65 0 0 160 c0 157 0 160 -21 160 -12 0 -28
8 -34 17 -12 16 -15 16 -32 2 -10 -9 -31 -15 -48 -15 -26 1 -32 -4 -42 -34
l-12 -35 2 37 c2 37 7 42 36 39 7 -2 10 2 7 7 -3 5 8 8 24 7 16 -1 27 1 25 5
-7 11 10 25 46 38 45 15 49 15 49 -1 0 -8 -12 -20 -27 -27 -28 -14 -28 -14 -5
-18 15 -2 30 4 41 17 10 12 30 21 45 21 16 0 26 5 26 15 0 8 5 15 10 15 6 0
10 -7 10 -15 0 -12 19 -15 110 -15 l110 0 0 56 c0 53 1 55 23 49 20 -5 20 -5
-3 9 -20 12 -22 15 -7 16 10 0 27 -5 39 -11 16 -9 24 -7 39 10 26 27 25 29
-16 29 -31 0 -34 -2 -23 -16 11 -13 10 -15 -5 -9 -10 4 -25 7 -33 7 -8 0 -14
4 -14 9 0 12 118 44 132 35 6 -4 8 -3 4 4 -4 7 6 9 31 7 33 -4 35 -3 13 5 -23
9 -22 9 8 5 23 -3 31 -1 26 7 -5 8 4 9 32 5 23 -4 33 -3 25 2 -9 6 0 11 30 15
24 4 58 9 74 12 23 4 26 3 15 -5 -23 -16 -2 -13 23 3 12 8 54 17 92 21 39 3
97 9 130 14 l60 8 -50 1 c-27 0 -99 -7 -160 -14z"/>
<path d="M3574 7582 c-326 -197 -637 -498 -863 -836 -165 -246 -296 -526 -376
-802 -40 -137 -78 -376 -101 -633 -6 -73 -6 -75 22 -100 38 -34 90 -100 146
-183 l45 -67 31 63 c18 34 66 153 106 265 83 227 125 303 231 424 192 220 480
348 785 349 99 1 142 -5 310 -41 107 -23 206 -45 220 -48 l25 -6 -27 34 c-69
86 -182 266 -241 384 -104 209 -135 299 -186 540 -38 179 -51 317 -51 527 0
92 -3 168 -7 167 -5 0 -35 -17 -69 -37z"/>
<path d="M4560 7440 c0 -47 -4 -80 -10 -80 -6 0 -10 -33 -10 -80 0 -47 4 -80
10 -80 6 0 10 -18 10 -40 0 -22 -4 -40 -10 -40 -5 0 -10 -18 -10 -40 0 -22 5
-40 10 -40 6 0 10 -18 10 -40 0 -22 5 -40 10 -40 6 0 10 100 10 280 0 180 -4
280 -10 280 -6 0 -10 -33 -10 -80z"/>
<path d="M4480 7240 l0 -200 -40 0 -40 0 0 -40 0 -40 40 0 40 0 0 40 c0 22 5
40 10 40 6 0 10 60 10 160 0 136 2 160 15 160 11 0 15 11 15 40 0 36 -2 40
-25 40 l-25 0 0 -200z"/>
<path d="M4560 6720 c0 -100 -4 -160 -10 -160 -5 0 -10 -18 -10 -40 0 -22 5
-40 10 -40 6 0 10 -18 10 -40 0 -22 -4 -40 -10 -40 -5 0 -10 -18 -10 -40 0
-22 5 -40 10 -40 6 0 10 -33 10 -80 0 -47 4 -80 10 -80 6 0 10 73 10 200 0
127 4 200 10 200 6 0 10 33 10 80 0 47 -4 80 -10 80 -6 0 -10 33 -10 80 0 47
-4 80 -10 80 -6 0 -10 -60 -10 -160z"/>
<path d="M4115 3970 c-143 -22 -301 -108 -425 -230 -109 -108 -148 -160 -204
-274 -58 -117 -83 -211 -98 -362 -10 -108 -10 -134 6 -225 10 -56 22 -114 27
-129 22 -62 365 -264 638 -375 282 -115 564 -174 953 -201 96 -7 97 -7 102 17
66 292 84 678 42 874 -52 243 -146 459 -265 606 -100 124 -146 160 -275 212
-211 86 -350 110 -501 87z"/>
</g>
</svg>
